<?xml version="1.0" encoding="UTF-8"?>
<svg version="1.1" xmlns="http://www.w3.org/2000/svg" width="500" height="500">
<path d="M0 0 C4.01700284 3.45649082 6.35007046 5.89372939 7.10546875 11.30859375 C7.3838366 17.81638259 6.89196136 22.47020734 3.07421875 27.82421875 C1.6875 29.3125 1.6875 29.3125 -1.3125 31.3125 C-1.79008762 33.37680104 -1.79008762 33.37680104 -1.6875 35.6875 C-1.69523437 36.45835937 -1.70296875 37.22921875 -1.7109375 38.0234375 C-1.20749167 40.91578318 -0.30097835 42.15973836 1.6875 44.3125 C4.03853559 45.23182596 4.03853559 45.23182596 6.73828125 45.62109375 C7.73996338 45.80776611 8.74164551 45.99443848 9.77368164 46.18676758 C10.8383667 46.37263428 11.90305176 46.55850098 13 46.75 C33.54526584 50.70820642 50.37782566 58.2056318 66.6875 71.3125 C67.62335938 72.01890625 68.55921875 72.7253125 69.5234375 73.453125 C70.23757813 74.06671875 70.95171875 74.6803125 71.6875 75.3125 C71.6875 75.9725 71.6875 76.6325 71.6875 77.3125 C72.3475 77.3125 73.0075 77.3125 73.6875 77.3125 C73.6875 77.9725 73.6875 78.6325 73.6875 79.3125 C74.3475 79.3125 75.0075 79.3125 75.6875 79.3125 C75.6875 79.9725 75.6875 80.6325 75.6875 81.3125 C76.3475 81.3125 77.0075 81.3125 77.6875 81.3125 C77.6875 81.9725 77.6875 82.6325 77.6875 83.3125 C78.3475 83.3125 79.0075 83.3125 79.6875 83.3125 C81.5278967 85.56788811 83.24612964 87.82374521 84.9375 90.1875 C85.43475586 90.87859863 85.93201172 91.56969727 86.44433594 92.28173828 C100.07980637 111.3972588 108.86798855 133.47315722 108.8125 157.25 C108.81507813 158.37277344 108.81765625 159.49554688 108.8203125 160.65234375 C108.6875 163.3125 108.6875 163.3125 107.6875 164.3125 C104.65347636 164.41051911 101.64220393 164.44241072 98.60777283 164.43275452 C97.16091365 164.43403615 97.16091365 164.43403615 95.684825 164.43534368 C92.42650229 164.43700142 89.16823014 164.43147233 85.90991211 164.42602539 C83.58467103 164.42574356 81.25942987 164.42590118 78.93418884 164.4264679 C72.5997316 164.42675602 66.26529312 164.42085695 59.93084025 164.41389394 C53.98822885 164.40829342 48.04561821 164.40727212 42.10300452 164.40624207 C30.32932693 164.40405124 18.55565626 164.39739033 6.78198242 164.38793945 C-4.65779587 164.37876612 -16.09757229 164.3716849 -27.53735352 164.36743164 C-28.24202175 164.36716892 -28.94668998 164.36690619 -29.6727118 164.36663551 C-33.20768197 164.36533051 -36.74265215 164.36406679 -40.27762234 164.36282361 C-69.62258602 164.35245004 -98.96754294 164.33475678 -128.3125 164.3125 C-128.3432103 161.8098001 -128.36535304 159.30748747 -128.3828125 156.8046875 C-128.39223877 156.10754639 -128.40166504 155.41040527 -128.41137695 154.69213867 C-128.54076188 129.83585681 -117.41167832 104.82841409 -101.3125 86.3125 C-100.78527344 85.56742187 -100.25804687 84.82234375 -99.71484375 84.0546875 C-99.02068359 83.19230469 -99.02068359 83.19230469 -98.3125 82.3125 C-97.6525 82.3125 -96.9925 82.3125 -96.3125 82.3125 C-96.044375 81.673125 -95.77625 81.03375 -95.5 80.375 C-94.3125 78.3125 -94.3125 78.3125 -91.3125 77.3125 C-91.3125 76.6525 -91.3125 75.9925 -91.3125 75.3125 C-90.6525 75.3125 -89.9925 75.3125 -89.3125 75.3125 C-89.3125 74.6525 -89.3125 73.9925 -89.3125 73.3125 C-87.16395057 71.50223282 -85.0206205 69.83334503 -82.75 68.1875 C-82.07396729 67.69685059 -81.39793457 67.20620117 -80.70141602 66.70068359 C-63.42781467 54.42728262 -44.411571 47.88279402 -23.45703125 44.9375 C-20.94208676 44.4541274 -20.94208676 44.4541274 -19.3125 41.3125 C-18.54938537 37.11536951 -18.26790062 32.98193643 -20.5859375 29.27734375 C-21.64589039 28.10105457 -22.73201065 26.94778401 -23.84375 25.8203125 C-26.90474418 22.6779089 -27.26754748 19.76951725 -27.6875 15.5 C-27.52021728 9.60049616 -25.05721836 5.05721836 -20.9375 0.9375 C-13.91861479 -3.40752417 -7.34334884 -3.7409513 0 0 Z " fill="#EF6027" transform="translate(260.3125,129.6875)"/>
<path d="M0 0 C0.92798053 -0.00322445 1.85596105 -0.00644889 2.8120622 -0.00977105 C3.82810154 -0.00822245 4.84414087 -0.00667385 5.89096928 -0.00507832 C6.97300052 -0.00734387 8.05503177 -0.00960943 9.16985184 -0.01194364 C12.80794523 -0.01829107 16.44600144 -0.0174538 20.08409977 -0.01662922 C22.68738192 -0.01962022 25.29066362 -0.02302261 27.89394474 -0.02680683 C34.23847328 -0.03511442 40.58299253 -0.03786171 46.92752605 -0.03841921 C52.08375878 -0.03889427 57.23998845 -0.0409485 62.39622021 -0.04411983 C77.01170588 -0.05292629 91.62718421 -0.05753916 106.24267256 -0.05678936 C107.03065115 -0.0567494 107.81862975 -0.05670945 108.63048649 -0.05666828 C109.41942584 -0.0566274 110.2083652 -0.05658652 111.02121181 -0.0565444 C123.81161492 -0.05613781 136.60198861 -0.06571059 149.39238321 -0.07980665 C162.52215017 -0.09416269 175.65190277 -0.10107728 188.78167778 -0.10021287 C196.15441891 -0.09988066 203.52712918 -0.10263835 210.89986324 -0.11339092 C217.83140474 -0.12343522 224.76287996 -0.12316849 231.69442463 -0.11587429 C234.24178188 -0.11482534 236.78914315 -0.11720962 239.33649349 -0.12323475 C242.80720372 -0.13091369 246.27768609 -0.126337 249.74839115 -0.11860371 C250.76219976 -0.12374727 251.77600838 -0.12889083 252.82053846 -0.13419026 C261.47005661 -0.09144594 261.47005661 -0.09144594 265.38317204 2.12863445 C267.53521632 4.76977971 267.37926584 6.23996091 267.25817204 9.69113445 C266.38317204 13.12863445 266.38317204 13.12863445 264.62094063 14.81953382 C262.06431835 16.31516471 260.64460938 16.50606074 257.70387459 16.5117445 C256.76196048 16.52080114 255.82004637 16.52985778 254.84958941 16.53918886 C253.81798628 16.53386094 252.78638315 16.52853301 251.72351933 16.52304363 C250.07597114 16.53218029 250.07597114 16.53218029 248.39513916 16.54150152 C244.70167433 16.55819759 241.00855176 16.55334618 237.3150568 16.54855633 C234.67235464 16.5558928 232.02967846 16.56438452 229.38698673 16.57422161 C222.94618589 16.59528792 216.50547503 16.5998158 210.06464381 16.59803373 C204.83021668 16.59672676 199.59581767 16.6005269 194.36139584 16.60795879 C192.85436549 16.61005796 191.34733514 16.61215556 189.84030479 16.61425161 C189.09024561 16.61529514 188.34018643 16.61633867 187.56739818 16.61741382 C173.37821669 16.63632086 159.18908688 16.63526451 144.99989801 16.62844449 C132.01543063 16.62286805 119.0311605 16.64369786 106.04673923 16.67680496 C92.71807517 16.71052636 79.38950564 16.72571228 66.06079811 16.72108793 C58.576214 16.71884174 51.09181223 16.72410814 43.60726452 16.74898052 C37.23573684 16.76997367 30.86449148 16.77360562 24.49295229 16.75468093 C21.24153305 16.74551058 17.99075091 16.74711966 14.73935223 16.76503658 C11.21568514 16.78311758 7.69343138 16.77056107 4.16980839 16.75009441 C2.62574978 16.76887119 2.62574978 16.76887119 1.05049807 16.78802729 C-3.66342844 16.72910912 -5.89248105 16.66964731 -9.75974274 13.78119946 C-12.02653217 10.54343405 -12.27627331 9.00287588 -11.61682796 5.12863445 C-10.27879972 2.6532822 -9.49752686 1.41759998 -6.79600471 0.53120536 C-4.48042484 0.10343598 -2.35461049 0.00207129 0 0 Z " fill="#EB5F27" transform="translate(122.61682796478271,304.8713655471802)"/>
<path d="M0 0 C27.49371092 -0.02332549 54.98742037 -0.04097745 82.48113918 -0.05181217 C95.2459744 -0.05697588 108.01080348 -0.06401998 120.77563477 -0.07543945 C131.89707587 -0.08538403 143.01851254 -0.09185288 154.13995796 -0.09408849 C160.03262097 -0.09539599 165.92527127 -0.09848427 171.81793022 -0.10573006 C177.35735416 -0.1124867 182.89676008 -0.11461769 188.43618774 -0.11310768 C190.47565369 -0.11338417 192.5151202 -0.11539139 194.5545826 -0.11920547 C197.32620083 -0.12413717 200.09774987 -0.12300024 202.86936951 -0.12025452 C204.09648538 -0.12462378 204.09648538 -0.12462378 205.34839147 -0.12908131 C210.88587879 -0.11412121 210.88587879 -0.11412121 212 1 C212.56802475 3.75897736 212.3853791 5.41029238 210.8359375 7.78125 C206.99711154 12.42721373 203.65376729 15.7202602 197.41860294 16.37752342 C196.00849835 16.39394966 194.59814365 16.39397606 193.18800354 16.38095093 C192.40800631 16.3856309 191.62800908 16.39031087 190.82437557 16.39513266 C188.21420499 16.40708594 185.60455912 16.39762422 182.99438477 16.38818359 C181.12162978 16.39224918 179.24887719 16.39759099 177.37612915 16.40411377 C172.29141401 16.4177956 167.2068814 16.41248485 162.12216306 16.40297651 C156.8011585 16.39538332 151.4801696 16.40242469 146.15916443 16.40713501 C137.22221063 16.41259402 128.28533118 16.40539761 119.34838867 16.39111328 C109.01744993 16.3747915 98.68668886 16.38007129 88.35575444 16.3965925 C79.48597874 16.41020915 70.6162565 16.41212599 61.74647373 16.40427649 C56.44894463 16.39960033 51.15149902 16.39897349 45.8539753 16.40888596 C40.87251731 16.41755573 35.89128817 16.41153339 30.90985489 16.39420319 C29.08212222 16.39023821 27.25437027 16.39137258 25.42664528 16.39799118 C22.93049735 16.40619646 20.43508147 16.39589761 17.9389801 16.38095093 C16.85555489 16.39098918 16.85555489 16.39098918 15.75024229 16.40123022 C11.11490645 16.34744229 7.98179492 15.34757402 4 13 C4 12.34 4 11.68 4 11 C3.34 11 2.68 11 2 11 C-0.4634897 6.76279771 -1.2168228 4.73029789 0 0 Z " fill="#EC6733" transform="translate(145,333)"/>
<path d="M0 0 C0.92798053 -0.00322445 1.85596105 -0.00644889 2.8120622 -0.00977105 C3.82810154 -0.00822245 4.84414087 -0.00667385 5.89096928 -0.00507832 C6.97300052 -0.00734387 8.05503177 -0.00960943 9.16985184 -0.01194364 C12.80794523 -0.01829107 16.44600144 -0.0174538 20.08409977 -0.01662922 C22.68738192 -0.01962022 25.29066362 -0.02302261 27.89394474 -0.02680683 C34.23847328 -0.03511442 40.58299253 -0.03786171 46.92752605 -0.03841921 C52.08375878 -0.03889427 57.23998845 -0.0409485 62.39622021 -0.04411983 C77.01170588 -0.05292629 91.62718421 -0.05753916 106.24267256 -0.05678936 C107.03065115 -0.0567494 107.81862975 -0.05670945 108.63048649 -0.05666828 C109.41942584 -0.0566274 110.2083652 -0.05658652 111.02121181 -0.0565444 C123.81161492 -0.05613781 136.60198861 -0.06571059 149.39238321 -0.07980665 C162.52215017 -0.09416269 175.65190277 -0.10107728 188.78167778 -0.10021287 C196.15441891 -0.09988066 203.52712918 -0.10263835 210.89986324 -0.11339092 C217.83140474 -0.12343522 224.76287996 -0.12316849 231.69442463 -0.11587429 C234.24178188 -0.11482534 236.78914315 -0.11720962 239.33649349 -0.12323475 C242.80720372 -0.13091369 246.27768609 -0.126337 249.74839115 -0.11860371 C250.76219976 -0.12374727 251.77600838 -0.12889083 252.82053846 -0.13419026 C261.47005661 -0.09144594 261.47005661 -0.09144594 265.38317204 2.12863445 C267.5669152 4.80868288 267.3770172 6.24762795 267.19567204 9.75363445 C266.38317204 13.12863445 266.38317204 13.12863445 263.38317204 15.12863445 C263.38317204 14.13863445 263.38317204 13.14863445 263.38317204 12.12863445 C262.72317204 11.79863445 262.06317204 11.46863445 261.38317204 11.12863445 C262.37317204 11.12863445 263.36317204 11.12863445 264.38317204 11.12863445 C263.91910954 9.73644695 263.91910954 9.73644695 263.44567204 8.31613445 C262.75817204 6.25363445 262.07067204 4.19113445 261.38317204 2.12863445 C227.40294015 2.18746452 193.42278408 2.26197191 159.44263653 2.35762073 C155.43453409 2.36888943 151.42643131 2.38002779 147.41832829 2.39108562 C146.221374 2.39439115 146.221374 2.39439115 145.00023882 2.39776345 C132.06531394 2.43317364 119.13038913 2.45801673 106.19543369 2.47898147 C92.93129956 2.50071395 79.66722854 2.53373991 66.40314806 2.57733601 C58.21292688 2.6038969 50.0227844 2.62155952 41.83252226 2.62798049 C35.56113757 2.63383874 29.28989772 2.65537971 23.01857281 2.68290997 C20.43933384 2.69174306 17.86007147 2.69540199 15.28081799 2.69364262 C11.77367882 2.69200488 8.26709676 2.70856045 4.76003361 2.72990704 C3.7269761 2.72505946 2.69391858 2.72021188 1.6295563 2.71521741 C0.69550758 2.72467395 -0.23854113 2.73413049 -1.20089436 2.7438736 C-2.01121754 2.7457722 -2.82154073 2.7476708 -3.65641916 2.74962693 C-4.62682152 2.93723566 -4.62682152 2.93723566 -5.61682796 3.12863445 C-8.43671956 6.65038365 -8.43671956 6.65038365 -6.61682796 14.12863445 C126.53817204 14.62363445 126.53817204 14.62363445 262.38317204 15.12863445 C262.38317204 15.45863445 262.38317204 15.78863445 262.38317204 16.12863445 C228.19930615 16.24303928 194.01548391 16.33116266 159.83146797 16.3839611 C155.79718868 16.39021475 151.76290976 16.39668635 147.72863102 16.40329266 C146.9254672 16.40460421 146.12230338 16.40591576 145.29480126 16.40726706 C132.28423601 16.42903302 119.27378105 16.46846107 106.26328126 16.51439843 C92.91668754 16.56113001 79.57015163 16.58892285 66.22347945 16.59907693 C57.98554401 16.60594297 49.74792028 16.62764066 41.51008078 16.66821679 C35.86368746 16.69461449 30.21745565 16.70264224 24.57100508 16.69614134 C21.31148757 16.69293368 18.05263154 16.70062384 14.79318523 16.72466183 C11.26059266 16.74944292 7.72934693 16.74359267 4.19672489 16.72990704 C3.16462401 16.74447124 2.13252312 16.75903545 1.06914645 16.774041 C-3.65249496 16.72440462 -5.88650109 16.67352888 -9.76142502 13.78246117 C-12.02570358 10.54380999 -12.27617391 9.00229188 -11.61682796 5.12863445 C-10.27879972 2.6532822 -9.49752686 1.41759998 -6.79600471 0.53120536 C-4.48042484 0.10343598 -2.35461049 0.00207129 0 0 Z " fill="#E8B29B" transform="translate(122.61682796478271,304.8713655471802)"/>
<path d="M0 0 C1.36948916 3.95630201 0.77791742 5.33249547 0 10 C-0.33 16.6 -0.66 23.2 -1 30 C75.89 30 152.78 30 232 30 C232 23.4 232 16.8 232 10 C232.33 10 232.66 10 233 10 C234.09460611 16.97811397 234.3524287 23.94106052 234 31 C232.08598687 32.91401313 229.24113918 32.1229273 226.6940636 32.12908131 C225.77871265 32.12616847 224.86336169 32.12325563 223.92027283 32.12025452 C222.47341365 32.12153615 222.47341365 32.12153615 220.997325 32.12284368 C217.73900229 32.12450142 214.48073014 32.11897233 211.22241211 32.11352539 C208.89717103 32.11324356 206.57192987 32.11340118 204.24668884 32.1139679 C197.9122316 32.11425602 191.57779312 32.10835695 185.24334025 32.10139394 C179.30072885 32.09579342 173.35811821 32.09477212 167.41550452 32.09374207 C155.64182693 32.09155124 143.86815626 32.08489033 132.09448242 32.07543945 C120.65470413 32.06626612 109.21492771 32.0591849 97.77514648 32.05493164 C97.07047825 32.05466892 96.36581002 32.05440619 95.6397882 32.05413551 C92.10481803 32.05283051 88.56984785 32.05156679 85.03487766 32.05032361 C55.68991398 32.03995004 26.34495706 32.02225678 -3 32 C-3.01778762 29.43877112 -3.0307717 26.87766727 -3.04101562 24.31640625 C-3.04651428 23.59569946 -3.05201294 22.87499268 -3.05767822 22.13244629 C-3.07331456 16.91586766 -2.6540947 12.07385776 -1.5 7 C-1.35691406 6.3090625 -1.21382812 5.618125 -1.06640625 4.90625 C-0.72506788 3.26782581 -0.36489496 1.63333933 0 0 Z " fill="#E1A082" transform="translate(135,262)"/>
<path d="M0 0 C0.81739513 0.00223072 1.63479026 0.00446144 2.47695494 0.00675976 C3.33873334 0.00519977 4.20051175 0.00363978 5.08840466 0.00203252 C7.99890358 -0.00198127 10.90935106 0.00121362 13.81985044 0.00434887 C15.89716704 0.002995 17.9744834 0.00121515 20.0517993 -0.00096118 C25.71072361 -0.00553718 31.36962979 -0.00374528 37.02855444 -0.0005821 C42.93648533 0.00194065 48.84441461 -0.0003958 54.75234556 -0.00196826 C64.67572895 -0.00379021 74.5991049 -0.001383 84.52248716 0.00337231 C96.01331935 0.00881498 107.5041338 0.00705234 118.99496555 0.00154591 C128.84120588 -0.00298451 138.68744084 -0.00363612 148.53368187 -0.00101542 C154.42297389 0.00054774 160.31225756 0.00074003 166.20154905 -0.00255191 C171.73688609 -0.0054296 177.27220015 -0.00345684 182.80753469 0.00234234 C184.84538755 0.0036705 186.88324232 0.0032749 188.92109442 0.00107968 C191.6904736 -0.00162967 194.45977787 0.00174664 197.2291522 0.00675976 C198.04654733 0.00452904 198.86394246 0.00229832 199.70610714 0 C205.23890374 0.01959357 205.23890374 0.01959357 206.35305357 1.13374341 C206.93001158 3.93611086 206.71450291 5.57567504 205.15383482 7.98530591 C200.72082716 13.41211125 200.72082716 13.41211125 196.35305357 14.13374341 C196.68305357 12.81374341 197.01305357 11.49374341 197.35305357 10.13374341 C198.67305357 10.13374341 199.99305357 10.13374341 201.35305357 10.13374341 C201.53867857 9.17468091 201.53867857 9.17468091 201.72805357 8.19624341 C201.93430357 7.51561841 202.14055357 6.83499341 202.35305357 6.13374341 C203.01305357 5.80374341 203.67305357 5.47374341 204.35305357 5.13374341 C204.68305357 4.14374341 205.01305357 3.15374341 205.35305357 2.13374341 C136.38305357 2.13374341 67.41305357 2.13374341 -3.64694643 2.13374341 C-3.64694643 4.44374341 -3.64694643 6.75374341 -3.64694643 9.13374341 C-4.30694643 8.80374341 -4.96694643 8.47374341 -5.64694643 8.13374341 C-6.33444643 4.63374341 -6.33444643 4.63374341 -6.64694643 1.13374341 C-4.84780204 -0.66540099 -2.39552844 0.00848341 0 0 Z " fill="#EDB69D" transform="translate(150.6469464302063,332.8662565946579)"/>
<path d="M0 0 C0.66 0.33 1.32 0.66 2 1 C0.8125 3.9375 0.8125 3.9375 -1 7 C-3.6875 7.875 -3.6875 7.875 -6 8 C-6 8.66 -6 9.32 -6 10 C-6.62261719 10.25136719 -7.24523437 10.50273437 -7.88671875 10.76171875 C-10.39366967 12.23067151 -10.77967924 13.1515874 -11.8125 15.8125 C-13.26599427 18.99988704 -14.4785731 20.62345112 -17.4375 22.5 C-24.35769049 26.94551852 -26.83308472 34.38937072 -29 42 C-29.99 42 -30.98 42 -32 42 C-31.938125 42.721875 -31.87625 43.44375 -31.8125 44.1875 C-32.03890323 47.58354843 -33.1610921 49.17091092 -35 52 C-35.69822617 53.65369357 -36.37498605 55.31727014 -37 57 C-38.79016604 52.20370609 -36.61149207 48.86857321 -34.6484375 44.421875 C-29.80988823 34.37787225 -24.20686446 25.53318319 -17 17 C-16.47019531 16.24976563 -15.94039062 15.49953125 -15.39453125 14.7265625 C-14.93433594 14.15679687 -14.47414062 13.58703125 -14 13 C-13.34 13 -12.68 13 -12 13 C-11.731875 12.360625 -11.46375 11.72125 -11.1875 11.0625 C-10 9 -10 9 -7 8 C-7 7.34 -7 6.68 -7 6 C-6.34 6 -5.68 6 -5 6 C-5 5.34 -5 4.68 -5 4 C-3.37373596 2.61767557 -1.7074998 1.28062485 0 0 Z " fill="#E7A083" transform="translate(176,199)"/>
<path d="M0 0 C0.7222023 -0.00058411 1.4444046 -0.00116821 2.18849182 -0.00177002 C4.57512517 0.00101629 6.96050876 0.03213183 9.34692383 0.06347656 C11.00172747 0.07093706 12.65653995 0.0766309 14.31135559 0.08062744 C18.66649779 0.09589896 23.02110626 0.13519342 27.3760376 0.17944336 C31.8200356 0.22036359 36.26411985 0.23863149 40.70825195 0.25878906 C49.42789791 0.3016866 58.1471101 0.36995577 66.86645508 0.45410156 C66.86645508 0.78410156 66.86645508 1.11410156 66.86645508 1.45410156 C65.98140289 1.4599678 65.09635071 1.46583405 64.18447876 1.47187805 C55.85558397 1.52971157 47.52696004 1.60173393 39.19832802 1.68981647 C34.91617325 1.7346002 30.63411539 1.77383828 26.35180664 1.80053711 C22.22138163 1.82649081 18.09132795 1.8668358 13.96113205 1.91728783 C12.38307682 1.93401053 10.80495728 1.94549105 9.22682571 1.95171547 C7.0211797 1.96129845 4.8164953 1.98928492 2.61108398 2.02172852 C1.35421783 2.03283157 0.09735168 2.04393463 -1.19760132 2.05537415 C-2.6508934 2.25274422 -2.6508934 2.25274422 -4.13354492 2.45410156 C-6.29971907 5.70336279 -6.34690161 6.05262576 -5.75854492 9.64160156 C-5.55229492 10.89972656 -5.34604492 12.15785156 -5.13354492 13.45410156 C-7.07104492 13.07910156 -7.07104492 13.07910156 -9.13354492 12.45410156 C-10.53812229 9.64494682 -10.38249649 7.56599622 -10.13354492 4.45410156 C-7.77400739 -0.32535106 -5.03025111 -0.0341613 0 0 Z " fill="#DE8F6E" transform="translate(121.133544921875,305.5458984375)"/>
<path d="M0 0 C0.66 0.33 1.32 0.66 2 1 C1.54625 1.33 1.0925 1.66 0.625 2 C-4.19321725 7.93011354 -2.98342229 15.33242305 -2.2890625 22.4375 C-2.19367188 23.283125 -2.09828125 24.12875 -2 25 C-0.02 25.66 1.96 26.32 4 27 C4.05389087 28.95803507 4.09274217 30.91648909 4.125 32.875 C4.14820313 33.96554688 4.17140625 35.05609375 4.1953125 36.1796875 C4 39 4 39 2 41 C1.99742187 40.35933594 1.99484375 39.71867187 1.9921875 39.05859375 C1.71914436 32.95152895 0.67968719 29.88627816 -3.56640625 25.5078125 C-6.95491358 21.94387836 -7.44271685 17.93784607 -7.32421875 13.125 C-6.52435332 7.88250848 -3.8328012 3.56922748 0 0 Z " fill="#E59F80" transform="translate(240,130)"/>
<path d="M0 0 C4.74312839 0.63425554 8.54059517 2.54121833 12.75 4.6875 C13.45576172 5.04328125 14.16152344 5.3990625 14.88867188 5.765625 C20.18598304 8.47994973 25.19471534 11.47612458 30 15 C28.16015625 15.63671875 28.16015625 15.63671875 26 16 C24.61543541 14.81805461 23.23661963 13.62840204 21.89453125 12.3984375 C18.82701772 10.13416978 15.34927147 9.18288159 11.765625 7.96875 C7.92833316 6.62461387 4.52864412 5.0257031 1 3 C0.67 2.01 0.34 1.02 0 0 Z " fill="#DF865E" transform="translate(292,182)"/>
<path d="M0 0 C13.53 0 27.06 0 41 0 C41 5.67326733 41 5.67326733 38.25 8.75 C37.48429687 9.63945312 37.48429687 9.63945312 36.703125 10.546875 C34.80513671 12.1662595 33.43642312 12.59746053 31 13 C31.33 11.68 31.66 10.36 32 9 C33.32 9 34.64 9 36 9 C36.185625 8.0409375 36.185625 8.0409375 36.375 7.0625 C36.58125 6.381875 36.7875 5.70125 37 5 C37.66 4.67 38.32 4.34 39 4 C39.33 3.01 39.66 2.02 40 1 C26.8 1 13.6 1 0 1 C0 0.67 0 0.34 0 0 Z " fill="#DD8460" transform="translate(316,334)"/>
<path d="M0 0 C0 3.34775846 -0.46574767 3.97744356 -2.3125 6.625 C-5.08466476 10.86200182 -6.61983736 15.15259951 -8 20 C-8.99 20 -9.98 20 -11 20 C-10.938125 20.721875 -10.87625 21.44375 -10.8125 22.1875 C-11.03890323 25.58354843 -12.1610921 27.17091092 -14 30 C-14.69822617 31.65369357 -15.37498605 33.31727014 -16 35 C-17.78749082 30.21087366 -15.61599024 26.88504064 -13.6640625 22.44140625 C-9.8374918 14.52777059 -5.66931684 6.75519935 0 0 Z " fill="#E4A288" transform="translate(155,221)"/>
<path d="M0 0 C0.81984375 0.4640625 1.6396875 0.928125 2.484375 1.40625 C6.44605684 3.20221243 9.98274963 3.87157903 14.25 4.5 C20.68222097 5.53207435 26.82842506 6.86193595 33 9 C33 9.33 33 9.66 33 10 C28.0427503 10.30982811 25.09027794 9.67781332 20.44921875 7.7265625 C16.12298005 6.44318068 11.65902792 6.47024882 7.171875 6.30859375 C4.20883152 6.02031735 2.50180184 5.54195212 0 4 C0 2.68 0 1.36 0 0 Z " fill="#DEA07F" transform="translate(259,172)"/>
<path d="M0 0 C3.60401481 -0.08701039 7.20776012 -0.14039388 10.8125 -0.1875 C12.34874023 -0.22520508 12.34874023 -0.22520508 13.91601562 -0.26367188 C15.39038086 -0.27817383 15.39038086 -0.27817383 16.89453125 -0.29296875 C18.25348511 -0.31653442 18.25348511 -0.31653442 19.63989258 -0.34057617 C22 0 22 0 23.76049805 1.3034668 C25.81617616 4.11711801 25.93993593 6.57634817 26 10 C24.0625 12.4375 24.0625 12.4375 22 14 C22 13.01 22 12.02 22 11 C21.34 10.67 20.68 10.34 20 10 C20.99 10 21.98 10 23 10 C22.690625 9.071875 22.38125 8.14375 22.0625 7.1875 C21.375 5.125 20.6875 3.0625 20 1 C13.4 1 6.8 1 0 1 C0 0.67 0 0.34 0 0 Z " fill="#E08E6E" transform="translate(364,306)"/>
<path d="M0 0 C2.72713321 2.23375524 3.89210913 3.43747931 4.56640625 6.953125 C4.5580568 14.00006379 4.19988554 19.78435723 -1 25 C-1.66 25 -2.32 25 -3 25 C-3 23.35 -3 21.7 -3 20 C-2.34 20 -1.68 20 -1 20 C1.68975386 13.10750574 1.17566683 7.20095932 0 0 Z " fill="#E0906E" transform="translate(263,134)"/>
<path d="M0 0 C2.62435715 2.62435715 3.42496153 5.55366727 4.5625 9 C4.78574951 9.66974854 5.00899902 10.33949707 5.23901367 11.02954102 C6.93098948 16.31847101 7.85590414 21.43265977 8 27 C5.86265125 24.86265125 5.44380865 23.76067516 4.5625 20.9375 C3.79277786 18.49088319 3.02238648 16.0611558 2.140625 13.65234375 C0.40086427 8.86800174 -0.32494651 5.09082872 0 0 Z " fill="#E3A082" transform="translate(359,245)"/>
<path d="M0 0 C1.33897583 0.95043374 2.67105427 1.91059147 4 2.875 C5.11375 3.67550781 5.11375 3.67550781 6.25 4.4921875 C6.8275 4.98976562 7.405 5.48734375 8 6 C8 6.66 8 7.32 8 8 C8.66 8 9.32 8 10 8 C10 8.66 10 9.32 10 10 C10.66 10 11.32 10 12 10 C12 10.66 12 11.32 12 12 C12.66 12 13.32 12 14 12 C14 12.66 14 13.32 14 14 C14.66 14 15.32 14 16 14 C17.38232443 15.62626404 18.71937515 17.2925002 20 19 C19.67 19.66 19.34 20.32 19 21 C17.72799029 19.89718873 16.45744147 18.79269231 15.1875 17.6875 C14.47980469 17.07261719 13.77210938 16.45773438 13.04296875 15.82421875 C9.3771204 12.55088953 9.3771204 12.55088953 8 11 C8 10.34 8 9.68 8 9 C7.13375 8.938125 7.13375 8.938125 6.25 8.875 C2.83120525 7.54546871 1.77333355 5.10333371 0 2 C0 1.34 0 0.68 0 0 Z " fill="#E29C7B" transform="translate(324,199)"/>
<path d="M0 0 C9.24 0 18.48 0 28 0 C28 0.33 28 0.66 28 1 C15.625 1.495 15.625 1.495 3 2 C2.67 2.99 2.34 3.98 2 5 C2.99 5 3.98 5 5 5 C5 6.65 5 8.3 5 10 C3.35 9.67 1.7 9.34 0 9 C0 6.03 0 3.06 0 0 Z " fill="#E5693B" transform="translate(147,335)"/>
<path d="M0 0 C0 0.99 0 1.98 0 3 C-1.65 3.33 -3.3 3.66 -5 4 C-5 4.66 -5 5.32 -5 6 C-5.804375 6.28875 -6.60875 6.5775 -7.4375 6.875 C-10.1326468 7.73262568 -10.1326468 7.73262568 -11 10 C-13.32156597 10.40729228 -15.6568787 10.74438677 -18 11 C-13.57087792 5.9803283 -6.94088151 0 0 0 Z " fill="#DD8460" transform="translate(196,188)"/>
<path d="M0 0 C2.475 0.495 2.475 0.495 5 1 C5.05389087 2.95803507 5.09274217 4.91648909 5.125 6.875 C5.14820313 7.96554688 5.17140625 9.05609375 5.1953125 10.1796875 C5 13 5 13 3 15 C2.92652344 14.00419922 2.92652344 14.00419922 2.8515625 12.98828125 C2.28874188 6.2887764 2.28874188 6.2887764 0 0 Z " fill="#E6916E" transform="translate(239,156)"/>
<path d="M0 0 C2.46717524 2.2639961 4.10134139 4.59060244 5.75 7.5 C6.42289062 8.66015625 6.42289062 8.66015625 7.109375 9.84375 C8 12 8 12 7 15 C5 13.25 5 13.25 3 11 C3 9.68 3 8.36 3 7 C2.01 6.67 1.02 6.34 0 6 C0 4.02 0 2.04 0 0 Z " fill="#E39773" transform="translate(351,230)"/>
<path d="M0 0 C0.33 0 0.66 0 1 0 C1.5045037 2.77477034 1.34106788 4.47056457 -0.1953125 6.85546875 C-4.64751727 12.28089416 -4.64751727 12.28089416 -9 13 C-8.67 11.68 -8.34 10.36 -8 9 C-6.68 9 -5.36 9 -4 9 C-3.814375 8.0409375 -3.814375 8.0409375 -3.625 7.0625 C-3.41875 6.381875 -3.2125 5.70125 -3 5 C-2.34 4.67 -1.68 4.34 -1 4 C-0.34786708 1.97536745 -0.34786708 1.97536745 0 0 Z " fill="#E49F83" transform="translate(356,334)"/>
<path d="M0 0 C-1.35468295 4.87685861 -3.71675909 6.48592381 -8 9 C-7.64598897 5.81390075 -7.16972964 4.20933322 -5.125 1.6875 C-3 0 -3 0 0 0 Z " fill="#DF8159" transform="translate(164,214)"/>
<path d="M0 0 C0 0.66 0 1.32 0 2 C-1.98 2 -3.96 2 -6 2 C-6 2.66 -6 3.32 -6 4 C-9.21451269 5.60725635 -12.43612536 5.05748185 -16 5 C-13.70311431 2.70311431 -12.21071829 2.28148697 -9.125 1.375 C-7.82949219 0.98441406 -7.82949219 0.98441406 -6.5078125 0.5859375 C-4 0 -4 0 0 0 Z " fill="#E49B7C" transform="translate(222,178)"/>
<path d="M0 0 C6.30367803 0.58367389 11.98660063 2.04071619 18 4 C18 4.33 18 4.66 18 5 C11.33499135 5.59244521 6.13047025 3.48322845 0 1 C0 0.67 0 0.34 0 0 Z " fill="#E49775" transform="translate(274,177)"/>
<path d="M0 0 C2.36503817 2.36503817 2.54921059 3.64036042 3.1875 6.875 C3.36667969 7.73867187 3.54585938 8.60234375 3.73046875 9.4921875 C3.9991907 11.99246997 3.7769577 13.63055452 3 16 C0.89424625 10.47239641 -0.37851209 5.93002267 0 0 Z " fill="#DF7F59" transform="translate(359,245)"/>
<path d="M0 0 C3.49844386 0.63389235 5.84086876 2.05177694 8.75 4.0625 C9.94882812 4.88427734 9.94882812 4.88427734 11.171875 5.72265625 C12.07679688 6.35494141 12.07679688 6.35494141 13 7 C11.2265625 7.67578125 11.2265625 7.67578125 9 8 C7.1484375 6.85546875 7.1484375 6.85546875 5.375 5.1875 C4.78460938 4.64480469 4.19421875 4.10210937 3.5859375 3.54296875 C2.38156146 2.37122359 1.18817262 1.18817262 0 0 Z " fill="#E9AF97" transform="translate(309,190)"/>
<path d="M0 0 C2.64 0 5.28 0 8 0 C8 0.33 8 0.66 8 1 C6.35 1 4.7 1 3 1 C3 3.31 3 5.62 3 8 C2.34 7.67 1.68 7.34 1 7 C0.59270772 4.67843403 0.25561323 2.3431213 0 0 Z " fill="#DF906F" transform="translate(144,334)"/>
<path d="M0 0 C3.39417765 3.12621626 5.6062718 5.56541027 7 10 C4.625 8.9375 4.625 8.9375 2 7 C0.6875 3.3125 0.6875 3.3125 0 0 Z " fill="#E59A7C" transform="translate(344,220)"/>
<path d="M0 0 C0 0.99 0 1.98 0 3 C-5.445 4.485 -5.445 4.485 -11 6 C-7.57669246 2.57669246 -4.96703212 0 0 0 Z " fill="#E59C85" transform="translate(196,188)"/>
<path d="M0 0 C2 1.8125 2 1.8125 4 4 C4 4.99 4 5.98 4 7 C3.01 7.33 2.02 7.66 1 8 C0.26919734 6.02253397 -0.39421747 4.01927511 -1 2 C-0.67 1.34 -0.34 0.68 0 0 Z " fill="#E26331" transform="translate(355,241)"/>
<path d="M0 0 C0.66 0.33 1.32 0.66 2 1 C1.01 2.485 1.01 2.485 0 4 C-0.02749478 6.06910593 -0.02749478 6.06910593 0.375 8.1875 C0.58125 9.445625 0.7875 10.70375 1 12 C0.34 12 -0.32 12 -1 12 C-2.11445498 9.77109005 -2.16480286 8.46944894 -2.1875 6 C-2.20167969 5.29875 -2.21585937 4.5975 -2.23046875 3.875 C-2 2 -2 2 0 0 Z " fill="#D56E46" transform="translate(115,307)"/>
<path d="M0 0 C-4.625 3 -4.625 3 -8 3 C-8 3.66 -8 4.32 -8 5 C-8.99 4.67 -9.98 4.34 -11 4 C-7.39987093 0.15158617 -5.25169925 -1.6298377 0 0 Z " fill="#D86B40" transform="translate(249,130)"/>
<path d="M0 0 C3.34373475 0.55728913 6.03312999 1.35173889 9 3 C9 3.33 9 3.66 9 4 C6.36 3.67 3.72 3.34 1 3 C0.67 2.01 0.34 1.02 0 0 Z " fill="#E69A79" transform="translate(292,182)"/>
<path d="M0 0 C0.66 0.33 1.32 0.66 2 1 C-0.75 3.0625 -0.75 3.0625 -4 5 C-6.203125 4.62109375 -6.203125 4.62109375 -8 4 C-6.71349294 3.30289269 -5.42059335 2.61757124 -4.125 1.9375 C-3.40570313 1.55464844 -2.68640625 1.17179688 -1.9453125 0.77734375 C-1.30335938 0.52082031 -0.66140625 0.26429688 0 0 Z " fill="#E5A388" transform="translate(204,183)"/>
<path d="M0 0 C0.33 0.66 0.66 1.32 1 2 C-0.375 4 -0.375 4 -2 6 C-2.66 6 -3.32 6 -4 6 C-4 4.35 -4 2.7 -4 1 C-2.68 0.67 -1.36 0.34 0 0 Z " fill="#E6A083" transform="translate(264,153)"/>
<path d="M0 0 C0.66 0.33 1.32 0.66 2 1 C0.35 2.65 -1.3 4.3 -3 6 C-3.99 5.34 -4.98 4.68 -6 4 C-4.02 2.68 -2.04 1.36 0 0 Z " fill="#DF6735" transform="translate(206,183)"/>
</svg>
